<svg xmlns="http://www.w3.org/2000/svg" xmlns:xlink="http://www.w3.org/1999/xlink" version="1.1" id="Calque_1" x="0px" y="0px" width="80px" height="80px" viewBox="0 0 80 80" enable-background="new 0 0 80 80" xml:space="preserve">
<g>
	<path d="M40.422,25.514c1.929,0,3.497-1.569,3.497-3.498s-1.568-3.498-3.497-3.498c-1.928,0-3.496,1.569-3.496,3.498   S38.494,25.514,40.422,25.514z M40.422,20.518c0.825,0,1.497,0.672,1.497,1.498c0,0.826-0.672,1.498-1.497,1.498   s-1.496-0.672-1.496-1.498C38.926,21.19,39.597,20.518,40.422,20.518z"/>
	<path d="M47.999,29.083l0.594-0.918c0.286-0.38,0.543-0.783,0.775-1.2l0.079-0.123h-0.008c0.777-1.438,1.224-3.08,1.224-4.827   c0-5.647-4.594-10.241-10.241-10.241c-5.646,0-10.24,4.594-10.24,10.241c0,1.747,0.446,3.388,1.223,4.827h-0.007l0.077,0.12   c0.233,0.418,0.49,0.822,0.777,1.202l0.423,0.654c-7.916,2.977-13.57,10.61-13.57,19.555c0,11.526,9.376,20.903,20.901,20.903   s20.902-9.377,20.902-20.903C60.908,39.68,55.565,32.228,47.999,29.083z M40.422,14.274c4.269,0,7.741,3.473,7.741,7.741   c0,1.698-0.556,3.264-1.486,4.542l-0.185,0.285l-3.252,5.011l-2.818,4.343l-2.812-4.342l-3.246-5.013h0.018   c-0.045-0.056-0.086-0.115-0.129-0.172c-0.98-1.297-1.57-2.907-1.57-4.655C32.682,17.747,36.154,14.274,40.422,14.274z    M28.552,34.012c1.639-1.306,3.508-2.326,5.529-3.019l6.341,9.808l6.19-9.574c2.092,0.812,4.008,1.978,5.652,3.451   c-0.468-0.022-0.94-0.016-1.42,0.054c-4.05,0.587-6.868,4.361-6.28,8.412c0.088,0.602,0.254,1.172,0.472,1.713l-0.009,0.002   c0.156,0.362,0.281,0.74,0.34,1.148c0.369,2.541-1.398,4.909-3.94,5.277c-2.543,0.369-4.909-1.398-5.277-3.94   c-0.133-0.904,0.018-1.782,0.366-2.562l-0.009-0.004c0.331-0.701,0.47-1.503,0.351-2.326c-0.325-2.235-2.406-3.79-4.643-3.465   c-0.209,0.03-0.403,0.089-0.599,0.149l-0.005-0.018c-0.137,0.039-0.271,0.082-0.413,0.103c-1.689,0.246-3.262-0.93-3.508-2.618   C27.548,35.615,27.901,34.676,28.552,34.012z M31.619,64.734c-5.026-2.588-8.705-7.417-9.718-13.164   c0.656,0.537,1.401,0.97,2.221,1.248c4.405,1.459,7.598,5.63,7.598,10.518C31.72,63.811,31.681,64.275,31.619,64.734z    M40.006,66.776c-2.098,0-4.105-0.37-5.984-1.019c0.146-0.787,0.233-1.594,0.233-2.422c0-5.946-3.892-11.011-9.219-12.854   l0.004-0.011c-1.884-0.59-3.264-2.327-3.275-4.4c0.408-3.241,1.658-6.217,3.531-8.707c0.623,2.834,3.345,4.755,6.261,4.333   c0.269-0.039,0.527-0.104,0.781-0.178l0.001,0.002c0.077-0.023,0.154-0.047,0.237-0.059c0.868-0.127,1.681,0.479,1.807,1.35   c0.047,0.321-0.008,0.636-0.139,0.91l0.003,0.002c-0.549,1.204-0.776,2.573-0.572,3.979c0.566,3.906,4.206,6.622,8.111,6.056   s6.622-4.205,6.057-8.111c-0.091-0.611-0.262-1.186-0.488-1.73l0.007-0.002c-0.146-0.359-0.263-0.732-0.319-1.131   c-0.39-2.685,1.479-5.186,4.162-5.576c1.729-0.251,3.385,0.442,4.45,1.679c-0.015,0-0.028-0.004-0.043-0.004   c-2.487,0-4.512,2.024-4.512,4.512c0,1.177,0.463,2.239,1.202,3.042l-0.005,0.006c0.752,0.827,1.224,1.915,1.224,3.119   c0,0.52-0.105,1.011-0.263,1.478c-0.16,0.427-0.242,0.882-0.242,1.364c0,2.044,1.579,3.708,3.58,3.881   C53.629,62.479,47.318,66.776,40.006,66.776z M56.931,53.819c-0.78,0-1.415-0.635-1.415-1.415c0-0.184,0.05-0.395,0.115-0.559   l0.009,0.002c0.243-0.719,0.381-1.485,0.381-2.285c0-1.868-0.726-3.566-1.901-4.842l-0.006,0.006   c-0.315-0.356-0.514-0.818-0.514-1.331c0-1.109,0.902-2.012,2.012-2.012c0.799,0,1.52,0.477,1.847,1.153   c0.615,1.834,0.95,3.797,0.95,5.836c0,1.824-0.276,3.585-0.773,5.25C57.428,53.746,57.188,53.819,56.931,53.819z"/>
</g>
</svg>